<?xml version="1.0" encoding="UTF-8"?>
<svg version="1.1" xmlns="http://www.w3.org/2000/svg" width="99" height="93">
<path d="M0 0 C8.84201234 8.52927235 12.90021912 18.13921092 13.6484375 30.3046875 C13.57001682 42.04164929 9.2624221 51.89130653 1.5 60.5625 C-6.75059534 68.30086326 -18.38545932 72.40108869 -29.6015625 72.125 C-42.45736075 70.67645935 -52.39060385 64.93836537 -60.6484375 55.18359375 C-67.85997204 45.27997053 -68.39846976 33.65630401 -67.375 21.8125 C-65.12309288 11.01621388 -58.4162169 2.01607287 -49.375 -4.1875 C-32.8197771 -12.71862019 -14.60089834 -12.33110248 0 0 Z " fill="#202325" transform="translate(76.375,15.1875)"/>
<path d="M0 0 C3.49951343 1.94698363 6.87518691 3.99106789 10.23828125 6.1640625 C13.64679141 8.01686596 16.41763272 8.6606736 20.265625 8.19140625 C22.703125 8.50390625 22.703125 8.50390625 25.078125 11.31640625 C25.614375 12.36828125 26.150625 13.42015625 26.703125 14.50390625 C26.373125 15.49390625 26.043125 16.48390625 25.703125 17.50390625 C23.228125 15.52390625 23.228125 15.52390625 20.703125 13.50390625 C21.198125 14.26703125 21.693125 15.03015625 22.203125 15.81640625 C23.703125 18.50390625 23.703125 18.50390625 23.703125 21.50390625 C23.043125 21.50390625 22.383125 21.50390625 21.703125 21.50390625 C21.703125 22.16390625 21.703125 22.82390625 21.703125 23.50390625 C20.713125 23.50390625 19.723125 23.50390625 18.703125 23.50390625 C17.66522919 21.86057121 16.66744576 20.19146758 15.703125 18.50390625 C14.713125 17.84390625 13.723125 17.18390625 12.703125 16.50390625 C12.703125 15.18390625 12.703125 13.86390625 12.703125 12.50390625 C12.043125 12.50390625 11.383125 12.50390625 10.703125 12.50390625 C10.703125 11.84390625 10.703125 11.18390625 10.703125 10.50390625 C10.0225 10.25640625 9.341875 10.00890625 8.640625 9.75390625 C6.23217671 8.72903464 4.37509332 7.66069536 2.203125 6.25390625 C-1.03748325 4.13620777 -1.03748325 4.13620777 -3.65234375 5.19921875 C-6.51263253 6.61035088 -9.31957722 8.08275326 -12.109375 9.62890625 C-13.08519531 10.16773438 -14.06101562 10.7065625 -15.06640625 11.26171875 C-16.17048828 11.87660156 -16.17048828 11.87660156 -17.296875 12.50390625 C-17.296875 13.16390625 -17.296875 13.82390625 -17.296875 14.50390625 C-16.33265625 13.91480469 -15.3684375 13.32570313 -14.375 12.71875 C-13.09934541 11.95898513 -11.82328215 11.19990613 -10.546875 10.44140625 C-9.91265625 10.05146484 -9.2784375 9.66152344 -8.625 9.25976562 C-3.81191376 6.42706383 -3.81191376 6.42706383 -1.22851562 6.8125 C1.28800374 7.71325617 3.25712621 9.04858355 5.453125 10.56640625 C6.25234375 11.11425781 7.0515625 11.66210938 7.875 12.2265625 C8.47828125 12.64808594 9.0815625 13.06960937 9.703125 13.50390625 C8.713125 13.83390625 7.723125 14.16390625 6.703125 14.50390625 C4.8359375 13.4375 4.8359375 13.4375 2.828125 11.94140625 C-0.28977561 9.73859198 -0.28977561 9.73859198 -3.984375 10.00390625 C-4.7475 10.49890625 -5.510625 10.99390625 -6.296875 11.50390625 C-7.225 12.04015625 -8.153125 12.57640625 -9.109375 13.12890625 C-9.83125 13.58265625 -10.553125 14.03640625 -11.296875 14.50390625 C-10.41 14.19453125 -9.523125 13.88515625 -8.609375 13.56640625 C-7.51625 13.21578125 -6.423125 12.86515625 -5.296875 12.50390625 C-4.4925 12.19453125 -3.688125 11.88515625 -2.859375 11.56640625 C1.20948848 11.46716568 3.67399639 13.98108732 6.703125 16.50390625 C6.373125 17.16390625 6.043125 17.82390625 5.703125 18.50390625 C0.8229294 17.55497933 0.8229294 17.55497933 -1.01953125 16.76953125 C-5.75712445 16.21694748 -10.34147661 19.46431107 -14.26953125 21.8984375 C-17.51113541 24.22724298 -17.51113541 24.22724298 -18.29296875 27.640625 C-18.48465622 30.8559172 -18.48465622 30.8559172 -18.1796875 33.96484375 C-18.23769531 35.22167969 -18.23769531 35.22167969 -18.296875 36.50390625 C-20.2890625 37.85546875 -20.2890625 37.85546875 -22.296875 38.50390625 C-23.5252573 23.98510996 -23.5252573 23.98510996 -20.55078125 20.3984375 C-18.50470167 19.21309728 -16.49157115 18.36693687 -14.296875 17.50390625 C-13.966875 16.84390625 -13.636875 16.18390625 -13.296875 15.50390625 C-14.06 15.99890625 -14.823125 16.49390625 -15.609375 17.00390625 C-18.296875 18.50390625 -18.296875 18.50390625 -21.296875 18.50390625 C-21.626875 19.49390625 -21.956875 20.48390625 -22.296875 21.50390625 C-23.616875 21.83390625 -24.936875 22.16390625 -26.296875 22.50390625 C-25.966875 28.77390625 -25.636875 35.04390625 -25.296875 41.50390625 C-23.976875 41.83390625 -22.656875 42.16390625 -21.296875 42.50390625 C-21.296875 43.49390625 -21.296875 44.48390625 -21.296875 45.50390625 C-19.316875 45.00890625 -19.316875 45.00890625 -17.296875 44.50390625 C-17.173125 45.47328125 -17.049375 46.44265625 -16.921875 47.44140625 C-16.715625 48.45203125 -16.509375 49.46265625 -16.296875 50.50390625 C-15.636875 50.83390625 -14.976875 51.16390625 -14.296875 51.50390625 C-14.296875 50.84390625 -14.296875 50.18390625 -14.296875 49.50390625 C-6.97635686 47.35823714 -6.97635686 47.35823714 -3.41796875 48.12109375 C1.70274937 48.74916681 4.90787849 46.36782995 9.17578125 43.76171875 C12.09719422 41.15186296 12.59718045 39.91060742 12.953125 36.06640625 C12.9458984 33.55457738 12.9458984 33.55457738 12.703125 31.50390625 C14.353125 30.84390625 16.003125 30.18390625 17.703125 29.50390625 C18.88177748 34.22540887 19.79992348 38.9569556 17.703125 43.50390625 C14.95466599 46.23807388 11.88203083 48.10915324 8.515625 50.00390625 C7.65283936 50.49028564 6.79005371 50.97666504 5.90112305 51.4777832 C-0.50697776 54.75872592 -0.50697776 54.75872592 -3.94262695 53.65039062 C-4.71952881 53.27205078 -5.49643066 52.89371094 -6.296875 52.50390625 C-7.62364008 52.14532109 -8.95523421 51.80204865 -10.296875 51.50390625 C-10.52485538 53.71763785 -10.52485538 53.71763785 -8.421875 55.50390625 C-7.720625 56.16390625 -7.019375 56.82390625 -6.296875 57.50390625 C-5.636875 58.16390625 -4.976875 58.82390625 -4.296875 59.50390625 C0.72565346 59.24839971 4.48346125 57.22965377 8.703125 54.69140625 C9.29351562 54.34787109 9.88390625 54.00433594 10.4921875 53.65039062 C13.40503307 51.94053744 16.23347377 50.15744877 19.015625 48.2421875 C21.703125 46.50390625 21.703125 46.50390625 23.703125 46.50390625 C23.703125 38.91390625 23.703125 31.32390625 23.703125 23.50390625 C25.023125 22.84390625 26.343125 22.18390625 27.703125 21.50390625 C27.81923895 25.75367671 27.89034849 30.00303962 27.953125 34.25390625 C28.00339844 36.06375 28.00339844 36.06375 28.0546875 37.91015625 C28.06757812 39.0703125 28.08046875 40.23046875 28.09375 41.42578125 C28.11469727 42.4940918 28.13564453 43.56240234 28.15722656 44.66308594 C27.58344259 48.2526291 26.52339375 49.2746553 23.703125 51.50390625 C21.49243164 52.92016602 21.49243164 52.92016602 19.11328125 54.1953125 C18.24638672 54.66517578 17.37949219 55.13503906 16.48632812 55.61914062 C15.58849609 56.09673828 14.69066406 56.57433594 13.765625 57.06640625 C11.98525756 58.02526312 10.20529704 58.98487599 8.42578125 59.9453125 C7.59449707 60.38633301 6.76321289 60.82735352 5.90673828 61.28173828 C3.54704552 62.54120892 3.54704552 62.54120892 0.88671875 64.46875 C-1.296875 65.50390625 -1.296875 65.50390625 -3.68359375 64.91796875 C-4.54597656 64.45132813 -5.40835938 63.9846875 -6.296875 63.50390625 C-7.39644531 62.93414062 -8.49601562 62.364375 -9.62890625 61.77734375 C-10.77746094 61.15085938 -11.92601563 60.524375 -13.109375 59.87890625 C-13.70685547 59.5540625 -14.30433594 59.22921875 -14.91992188 58.89453125 C-16.38024635 58.10011474 -17.83874991 57.30235249 -19.296875 56.50390625 C-19.296875 55.84390625 -19.296875 55.18390625 -19.296875 54.50390625 C-18.306875 54.50390625 -17.316875 54.50390625 -16.296875 54.50390625 C-16.296875 53.84390625 -16.296875 53.18390625 -16.296875 52.50390625 C-20.751875 52.99890625 -20.751875 52.99890625 -25.296875 53.50390625 C-25.296875 52.84390625 -25.296875 52.18390625 -25.296875 51.50390625 C-26.616875 52.16390625 -27.936875 52.82390625 -29.296875 53.50390625 C-28.966875 52.18390625 -28.636875 50.86390625 -28.296875 49.50390625 C-29.286875 49.50390625 -30.276875 49.50390625 -31.296875 49.50390625 C-33.4985341 45.10058805 -32.77079867 39.32230236 -32.86669922 34.43798828 C-32.90331654 32.9885258 -32.95785041 31.53939915 -33.03076172 30.09130859 C-33.62202769 18.15972484 -33.62202769 18.15972484 -30.60717773 14.39257812 C-28.2474854 12.79497555 -25.90053949 11.65774787 -23.296875 10.50390625 C-21.60631144 9.49900748 -19.92530523 8.47786759 -18.25390625 7.44140625 C-16.54147355 6.45802906 -14.82661162 5.47887027 -13.109375 4.50390625 C-12.24634766 3.98957031 -11.38332031 3.47523437 -10.49414062 2.9453125 C-4.16741172 -0.62708683 -4.16741172 -0.62708683 0 0 Z " fill="#818689" transform="translate(51.296875,16.49609375)"/>
<path d="M0 0 C0.79921875 0.44859375 1.5984375 0.8971875 2.421875 1.359375 C3.23269531 1.78476562 4.04351562 2.21015625 4.87890625 2.6484375 C6.04486328 3.30972656 6.04486328 3.30972656 7.234375 3.984375 C8.02457031 4.43039063 8.81476562 4.87640625 9.62890625 5.3359375 C10.22058594 5.67367188 10.81226563 6.01140625 11.421875 6.359375 C11.421875 7.019375 11.421875 7.679375 11.421875 8.359375 C12.081875 8.359375 12.741875 8.359375 13.421875 8.359375 C13.504375 8.9575 13.586875 9.555625 13.671875 10.171875 C14.62643372 12.9560046 15.99319771 13.79248642 18.421875 15.359375 C16.93369239 19.13387167 14.9166843 20.70848134 11.609375 22.984375 C6.59793485 26.50360768 1.73886799 30.16233463 -3.07348633 33.94580078 C-11.42986743 40.45349447 -11.42986743 40.45349447 -16.390625 40.046875 C-17.9684375 39.7065625 -17.9684375 39.7065625 -19.578125 39.359375 C-19.578125 38.039375 -19.578125 36.719375 -19.578125 35.359375 C-20.568125 35.359375 -21.558125 35.359375 -22.578125 35.359375 C-22.578125 36.019375 -22.578125 36.679375 -22.578125 37.359375 C-21.918125 37.689375 -21.258125 38.019375 -20.578125 38.359375 C-22.228125 38.029375 -23.878125 37.699375 -25.578125 37.359375 C-25.578125 31.089375 -25.578125 24.819375 -25.578125 18.359375 C-24.258125 17.699375 -22.938125 17.039375 -21.578125 16.359375 C-21.248125 15.699375 -20.918125 15.039375 -20.578125 14.359375 C-15.15504808 11.359375 -15.15504808 11.359375 -12.578125 11.359375 C-12.908125 12.349375 -13.238125 13.339375 -13.578125 14.359375 C-14.733125 14.75125 -15.888125 15.143125 -17.078125 15.546875 C-19.11826519 16.42452351 -19.11826519 16.42452351 -20.578125 18.359375 C-21.53592491 23.70663509 -21.6222587 28.93723497 -21.578125 34.359375 C-20.588125 33.699375 -19.598125 33.039375 -18.578125 32.359375 C-18.58970692 30.50337276 -18.68631557 28.64748802 -18.828125 26.796875 C-18.65647558 23.57064613 -18.46075652 21.3157702 -16.21679688 18.88427734 C-11.43669901 15.01914133 -5.83100772 11.47388326 0.41796875 11.25390625 C2.859375 11.796875 2.859375 11.796875 6.421875 13.359375 C4.48932728 11.3348012 2.79028812 9.93831708 0.421875 8.359375 C-2.30721075 8.63928123 -4.2775206 9.20023149 -6.703125 10.484375 C-8.578125 11.359375 -8.578125 11.359375 -11.578125 10.359375 C-10.19897575 9.29571741 -8.79897898 8.25905017 -7.390625 7.234375 C-6.61332031 6.65429688 -5.83601563 6.07421875 -5.03515625 5.4765625 C-2.578125 4.359375 -2.578125 4.359375 0.046875 5.078125 C2.55637786 6.43193575 5.00768132 7.84188183 7.421875 9.359375 C7.751875 9.029375 8.081875 8.699375 8.421875 8.359375 C7.20550121 7.4870871 5.97306608 6.63717006 4.734375 5.796875 C4.04988281 5.32121094 3.36539063 4.84554688 2.66015625 4.35546875 C-0.29433433 3.0406431 -1.52590691 3.33437639 -4.578125 4.359375 C-7.77890857 6.10973932 -10.83896023 8.0301304 -13.93359375 9.9609375 C-14.80628906 10.42242187 -15.67898437 10.88390625 -16.578125 11.359375 C-17.238125 11.029375 -17.898125 10.699375 -18.578125 10.359375 C-15.56382094 7.10652889 -12.42731352 4.785994 -8.640625 2.484375 C-7.62097656 1.84757812 -6.60132812 1.21078125 -5.55078125 0.5546875 C-2.578125 -0.640625 -2.578125 -0.640625 0 0 Z " fill="#25282C" transform="translate(50.578125,20.640625)"/>
<path d="M0 0 C3.49951343 1.94698363 6.87518691 3.99106789 10.23828125 6.1640625 C13.64679141 8.01686596 16.41763272 8.6606736 20.265625 8.19140625 C22.703125 8.50390625 22.703125 8.50390625 25.078125 11.31640625 C25.614375 12.36828125 26.150625 13.42015625 26.703125 14.50390625 C26.373125 15.49390625 26.043125 16.48390625 25.703125 17.50390625 C23.228125 15.52390625 23.228125 15.52390625 20.703125 13.50390625 C21.198125 14.26703125 21.693125 15.03015625 22.203125 15.81640625 C23.703125 18.50390625 23.703125 18.50390625 23.703125 21.50390625 C23.043125 21.50390625 22.383125 21.50390625 21.703125 21.50390625 C21.703125 22.16390625 21.703125 22.82390625 21.703125 23.50390625 C20.713125 23.50390625 19.723125 23.50390625 18.703125 23.50390625 C17.66522919 21.86057121 16.66744576 20.19146758 15.703125 18.50390625 C14.713125 17.84390625 13.723125 17.18390625 12.703125 16.50390625 C12.703125 15.18390625 12.703125 13.86390625 12.703125 12.50390625 C12.043125 12.50390625 11.383125 12.50390625 10.703125 12.50390625 C10.703125 11.84390625 10.703125 11.18390625 10.703125 10.50390625 C10.0225 10.25640625 9.341875 10.00890625 8.640625 9.75390625 C6.23217671 8.72903464 4.37509332 7.66069536 2.203125 6.25390625 C-1.04948041 4.12709309 -1.04948041 4.12709309 -3.71826172 5.23413086 C-6.20220611 6.45728886 -8.63907858 7.71714918 -11.0546875 9.0703125 C-11.92738281 9.55564453 -12.80007812 10.04097656 -13.69921875 10.54101562 C-14.59769531 11.04439453 -15.49617188 11.54777344 -16.421875 12.06640625 C-18.21485584 13.07001643 -20.00907435 14.07141956 -21.8046875 15.0703125 C-22.59504395 15.51318604 -23.38540039 15.95605957 -24.19970703 16.41235352 C-26.296875 17.50390625 -26.296875 17.50390625 -29.296875 18.50390625 C-29.26134521 19.37192871 -29.22581543 20.23995117 -29.18920898 21.13427734 C-29.06009266 24.35076107 -28.93576356 27.56738369 -28.81469727 30.78417969 C-28.76128351 32.17715847 -28.70595457 33.57006518 -28.64868164 34.96289062 C-28.56675431 36.96334227 -28.49225402 38.96409375 -28.41796875 40.96484375 C-28.3708374 42.16931152 -28.32370605 43.3737793 -28.27514648 44.61474609 C-28.296875 47.50390625 -28.296875 47.50390625 -29.296875 49.50390625 C-29.956875 49.50390625 -30.616875 49.50390625 -31.296875 49.50390625 C-33.4985341 45.10058805 -32.77079867 39.32230236 -32.86669922 34.43798828 C-32.90331654 32.9885258 -32.95785041 31.53939915 -33.03076172 30.09130859 C-33.62202769 18.15972484 -33.62202769 18.15972484 -30.60717773 14.39257812 C-28.2474854 12.79497555 -25.90053949 11.65774787 -23.296875 10.50390625 C-21.60631144 9.49900748 -19.92530523 8.47786759 -18.25390625 7.44140625 C-16.54147355 6.45802906 -14.82661162 5.47887027 -13.109375 4.50390625 C-12.24634766 3.98957031 -11.38332031 3.47523437 -10.49414062 2.9453125 C-4.16741172 -0.62708683 -4.16741172 -0.62708683 0 0 Z " fill="#BCC0C0" transform="translate(51.296875,16.49609375)"/>
<path d="M0 0 C2.51651937 0.90075617 4.48564183 2.23608355 6.68164062 3.75390625 C7.48085938 4.30175781 8.28007813 4.84960938 9.10351562 5.4140625 C9.70679688 5.83558594 10.31007812 6.25710937 10.93164062 6.69140625 C9.94164062 7.02140625 8.95164063 7.35140625 7.93164062 7.69140625 C6.06445312 6.625 6.06445312 6.625 4.05664062 5.12890625 C0.93874002 2.92609198 0.93874002 2.92609198 -2.75585938 3.19140625 C-3.51898438 3.68640625 -4.28210938 4.18140625 -5.06835938 4.69140625 C-5.99648438 5.22765625 -6.92460938 5.76390625 -7.88085938 6.31640625 C-8.60273437 6.77015625 -9.32460938 7.22390625 -10.06835938 7.69140625 C-9.18148437 7.38203125 -8.29460938 7.07265625 -7.38085938 6.75390625 C-5.74117187 6.22796875 -5.74117187 6.22796875 -4.06835938 5.69140625 C-3.26398437 5.38203125 -2.45960937 5.07265625 -1.63085938 4.75390625 C2.43800411 4.65466568 4.90251201 7.16858732 7.93164062 9.69140625 C7.60164063 10.35140625 7.27164063 11.01140625 6.93164062 11.69140625 C2.05144503 10.74247933 2.05144503 10.74247933 0.20898438 9.95703125 C-4.52860882 9.40444748 -9.11296098 12.65181107 -13.04101562 15.0859375 C-16.28261978 17.41474298 -16.28261978 17.41474298 -17.06445312 20.828125 C-17.25614059 24.0434172 -17.25614059 24.0434172 -16.95117188 27.15234375 C-17.00917969 28.40917969 -17.00917969 28.40917969 -17.06835938 29.69140625 C-19.06054688 31.04296875 -19.06054688 31.04296875 -21.06835938 31.69140625 C-22.29674167 17.17260996 -22.29674167 17.17260996 -19.32226562 13.5859375 C-17.27618605 12.40059728 -15.26305553 11.55443687 -13.06835938 10.69140625 C-12.73835938 10.03140625 -12.40835938 9.37140625 -12.06835938 8.69140625 C-12.83148438 9.18640625 -13.59460938 9.68140625 -14.38085938 10.19140625 C-17.06835938 11.69140625 -17.06835938 11.69140625 -20.06835938 11.69140625 C-20.39835937 12.68140625 -20.72835938 13.67140625 -21.06835938 14.69140625 C-23.13085938 15.37890625 -23.13085938 15.37890625 -25.06835938 15.69140625 C-24.95873121 18.81714585 -24.82804697 21.94165406 -24.69335938 25.06640625 C-24.66242187 25.95585938 -24.63148437 26.8453125 -24.59960938 27.76171875 C-24.5609375 28.6125 -24.52226562 29.46328125 -24.48242188 30.33984375 C-24.45100098 31.12536621 -24.41958008 31.91088867 -24.38720703 32.72021484 C-24.22841288 34.92143564 -24.22841288 34.92143564 -22.06835938 36.69140625 C-23.38835938 39.00140625 -24.70835938 41.31140625 -26.06835938 43.69140625 C-25.40835937 44.02140625 -24.74835937 44.35140625 -24.06835938 44.69140625 C-25.38835938 45.35140625 -26.70835938 46.01140625 -28.06835938 46.69140625 C-28.06835938 35.14140625 -28.06835938 23.59140625 -28.06835938 11.69140625 C-24.43835938 9.71140625 -20.80835937 7.73140625 -17.06835938 5.69140625 C-16.73835938 6.35140625 -16.40835938 7.01140625 -16.06835938 7.69140625 C-14.62203125 6.80775391 -14.62203125 6.80775391 -13.14648438 5.90625 C-11.87082978 5.14648513 -10.59476652 4.38740613 -9.31835938 3.62890625 C-8.68414062 3.23896484 -8.04992187 2.84902344 -7.39648438 2.44726562 C-2.58339814 -0.38543617 -2.58339814 -0.38543617 0 0 Z " fill="#202529" transform="translate(50.068359375,23.30859375)"/>
<path d="M0 0 C1.98 1.65 3.96 3.3 6 5 C4.51181739 8.77449667 2.4948093 10.34910634 -0.8125 12.625 C-5.82394015 16.14423268 -10.68300701 19.80295963 -15.49536133 23.58642578 C-23.85174243 30.09411947 -23.85174243 30.09411947 -28.8125 29.6875 C-29.864375 29.460625 -30.91625 29.23375 -32 29 C-32 27.68 -32 26.36 -32 25 C-29.45703125 23.11328125 -29.45703125 23.11328125 -27.79150391 22.11181641 C-24.54192504 20.09511129 -21.65292018 17.59445992 -18.6875 15.1875 C-17.36483372 14.12338662 -16.04191775 13.05958351 -14.71875 11.99609375 C-13.47907892 10.99750475 -12.23948909 9.99881488 -11 9 C-9.23357622 7.57783892 -7.46366554 6.15997557 -5.6875 4.75 C-4.67236328 3.93789063 -4.67236328 3.93789063 -3.63671875 3.109375 C-2 2 -2 2 0 2 C0 1.34 0 0.68 0 0 Z " fill="#3F4043" transform="translate(63,31)"/>
<path d="M0 0 C0.598125 0.309375 1.19625 0.61875 1.8125 0.9375 C4.08956772 2.10209704 4.08956772 2.10209704 7 3 C7 3.66 7 4.32 7 5 C6.01 5 5.02 5 4 5 C4 5.66 4 6.32 4 7 C4.99 7.33 5.98 7.66 7 8 C6.01 8.66 5.02 9.32 4 10 C3.73732589 12.2813111 3.73732589 12.2813111 4.015625 14.91015625 C4.69472366 30.65547018 4.69472366 30.65547018 1.63867188 34.88330078 C-1.85582005 37.8639553 -5.88615212 39.60994549 -10.14404297 41.24609375 C-12.63714127 42.25881245 -14.80589819 43.6696273 -17.0625 45.125 C-20.00438107 46.74025923 -20.93354358 47.0012083 -24.4375 46.9375 C-27 46 -27 46 -29 44 C-29 43.34 -29 42.68 -29 42 C-30.29233607 40.62689293 -31.62437146 39.28965176 -33 38 C-31.3125 37.3125 -31.3125 37.3125 -29 37 C-28.195625 37.515625 -27.39125 38.03125 -26.5625 38.5625 C-24.12988016 40.30980375 -24.12988016 40.30980375 -21.6875 39.4375 C-20.800625 38.963125 -19.91375 38.48875 -19 38 C-17.5634407 37.28976079 -16.12588651 36.5815314 -14.6875 35.875 C-13.45733836 35.25196065 -12.22782862 34.62762455 -11 34 C-10.67 34.66 -10.34 35.32 -10 36 C-9.05125 35.34 -8.1025 34.68 -7.125 34 C-4 32 -4 32 -2 32 C-2.01160156 30.80761719 -2.02320312 29.61523438 -2.03515625 28.38671875 C-2.04453592 26.82031406 -2.05363593 25.25390769 -2.0625 23.6875 C-2.07087891 22.90181641 -2.07925781 22.11613281 -2.08789062 21.30664062 C-2.09272461 20.1706543 -2.09272461 20.1706543 -2.09765625 19.01171875 C-2.10551147 17.96697388 -2.10551147 17.96697388 -2.11352539 16.90112305 C-2 15 -2 15 -1 12 C-1.33 11.34 -1.66 10.68 -2 10 C-1.01 10 -0.02 10 1 10 C1 9.34 1 8.68 1 8 C1.66 8 2.32 8 3 8 C2.505 7.05125 2.01 6.1025 1.5 5.125 C0 2 0 2 0 0 Z " fill="#252A30" transform="translate(72,30)"/>
<path d="M0 0 C0.66 0 1.32 0 2 0 C2.11611395 4.24977046 2.18722349 8.49913337 2.25 12.75 C2.30027344 14.55984375 2.30027344 14.55984375 2.3515625 16.40625 C2.36445312 17.56640625 2.37734375 18.7265625 2.390625 19.921875 C2.41157227 20.99018555 2.43251953 22.05849609 2.45410156 23.15917969 C1.88594074 26.71354493 0.7691871 27.77761292 -2 30 C-4.14486255 31.34154324 -6.33682569 32.60977498 -8.5625 33.8125 C-9.69816406 34.43769531 -10.83382812 35.06289062 -12.00390625 35.70703125 C-15 37 -15 37 -18 36 C-16.6551963 31.96558889 -14.04690097 30.87332753 -10.5625 28.8125 C-9.96373047 28.44447266 -9.36496094 28.07644531 -8.74804688 27.69726562 C-4.27929325 25 -4.27929325 25 -2 25 C-2.01047363 24.31373535 -2.02094727 23.6274707 -2.03173828 22.92041016 C-2.07321874 19.82197711 -2.09930069 16.72360239 -2.125 13.625 C-2.14175781 12.54476562 -2.15851563 11.46453125 -2.17578125 10.3515625 C-2.18222656 9.3203125 -2.18867187 8.2890625 -2.1953125 7.2265625 C-2.20578613 6.27346191 -2.21625977 5.32036133 -2.22705078 4.33837891 C-2 2 -2 2 0 0 Z " fill="#8B8F92" transform="translate(77,38)"/>
<path d="M0 0 C2.04049422 1.2704964 4.05017465 2.59431196 6 4 C5.67 4.66 5.34 5.32 5 6 C0.1198044 5.05107308 0.1198044 5.05107308 -1.72265625 4.265625 C-6.46024945 3.71304123 -11.04460161 6.96040482 -14.97265625 9.39453125 C-18.21426041 11.72333673 -18.21426041 11.72333673 -18.99609375 15.13671875 C-19.18778122 18.35201095 -19.18778122 18.35201095 -18.8828125 21.4609375 C-18.94082031 22.71777344 -18.94082031 22.71777344 -19 24 C-20.9921875 25.3515625 -20.9921875 25.3515625 -23 26 C-24.0871988 20.65125034 -25.06526403 15.21111887 -23 10 C-17.68395039 4.15588638 -8.00720882 -2.43152107 0 0 Z " fill="#C1C6C8" transform="translate(52,29)"/>
<path d="M0 0 C1.17865248 4.72150262 2.09679848 9.45304935 0 14 C-2.74845901 16.73416763 -5.82109417 18.60524699 -9.1875 20.5 C-10.05028564 20.98637939 -10.91307129 21.47275879 -11.80200195 21.97387695 C-18.19876351 25.24901398 -18.19876351 25.24901398 -21.64575195 24.17773438 C-22.42265381 23.78908203 -23.19955566 23.40042969 -24 23 C-24.763125 22.62875 -25.52625 22.2575 -26.3125 21.875 C-26.869375 21.58625 -27.42625 21.2975 -28 21 C-28 20.34 -28 19.68 -28 19 C-25.35534732 18.0845433 -24.02077304 17.99510876 -21.24609375 18.6484375 C-16.04137462 19.21212549 -12.85728996 16.9020515 -8.515625 14.25 C-5.60444655 11.64621307 -5.18250647 10.51851031 -4.9375 6.6875 C-5.01291016 5.42486328 -5.01291016 5.42486328 -5.08984375 4.13671875 C-5.04537109 3.07904297 -5.04537109 3.07904297 -5 2 C-2 0 -2 0 0 0 Z " fill="#84898B" transform="translate(69,46)"/>
<path d="M0 0 C-0.33 0.99 -0.66 1.98 -1 3 C-2.155 3.391875 -3.31 3.78375 -4.5 4.1875 C-6.54014019 5.06514851 -6.54014019 5.06514851 -8 7 C-8.95779991 12.34726009 -9.0441337 17.57785997 -9 23 C-8.01 22.34 -7.02 21.68 -6 21 C-5.41518879 18.11404054 -5.41518879 18.11404054 -5.3125 14.875 C-5.24675781 13.77929688 -5.18101563 12.68359375 -5.11328125 11.5546875 C-5.07589844 10.71164063 -5.03851563 9.86859375 -5 9 C-4.67 9 -4.34 9 -4 9 C-3.95101562 9.69867188 -3.90203125 10.39734375 -3.8515625 11.1171875 C-3.77679688 12.02726562 -3.70203125 12.93734375 -3.625 13.875 C-3.55539063 14.77992187 -3.48578125 15.68484375 -3.4140625 16.6171875 C-3.20431868 19.17941903 -3.20431868 19.17941903 -1 21 C-3.35968744 23.09749995 -4.54616994 23.96905704 -7.75 24.1875 C-8.86375 24.0946875 -8.86375 24.0946875 -10 24 C-10 24.66 -10 25.32 -10 26 C-9.34 26.33 -8.68 26.66 -8 27 C-9.65 26.67 -11.3 26.34 -13 26 C-13 19.73 -13 13.46 -13 7 C-11.68 6.34 -10.36 5.68 -9 5 C-8.67 4.34 -8.34 3.68 -8 3 C-2.57692308 0 -2.57692308 0 0 0 Z " fill="#373C41" transform="translate(38,32)"/>
<path d="M0 0 C-1.44754977 3.52139228 -3.20014926 5.19368583 -6.25390625 7.42578125 C-7.10919922 8.05806641 -7.96449219 8.69035156 -8.84570312 9.34179688 C-9.74224609 9.99212891 -10.63878906 10.64246094 -11.5625 11.3125 C-13.3143853 12.59946689 -15.06569083 13.88722337 -16.81640625 15.17578125 C-17.67637207 15.80436035 -18.53633789 16.43293945 -19.42236328 17.08056641 C-22.74578053 19.55534443 -25.98059688 22.13435521 -29.20288086 24.73901367 C-31 26 -31 26 -33 26 C-33 24.68 -33 23.36 -33 22 C-30.4609375 20.1171875 -30.4609375 20.1171875 -28.79589844 19.11621094 C-25.52143231 17.08102074 -22.61296206 14.55307552 -19.625 12.125 C-18.29867521 11.0592756 -16.97185692 9.99416507 -15.64453125 8.9296875 C-13.55513876 7.25154221 -11.46899615 5.56979958 -9.38671875 3.8828125 C-8.70222656 3.34398437 -8.01773438 2.80515625 -7.3125 2.25 C-6.75175781 1.80140625 -6.19101562 1.3528125 -5.61328125 0.890625 C-4 0 -4 0 0 0 Z " fill="#A2A4A6" transform="translate(64,34)"/>
<path d="M0 0 C5.22772277 -0.52277228 5.22772277 -0.52277228 8 0 C10.5625 2.8125 10.5625 2.8125 12 6 C11.67 6.99 11.34 7.98 11 9 C9.35 7.68 7.7 6.36 6 5 C6.495 5.763125 6.99 6.52625 7.5 7.3125 C9 10 9 10 9 13 C8.34 13 7.68 13 7 13 C7 13.66 7 14.32 7 15 C6.01 15 5.02 15 4 15 C2.96210419 13.35666496 1.96432076 11.68756133 1 10 C0.01 9.34 -0.98 8.68 -2 8 C-2 6.68 -2 5.36 -2 4 C-2.66 3.67 -3.32 3.34 -4 3 C-3.01 2.67 -2.02 2.34 -1 2 C-0.67 1.34 -0.34 0.68 0 0 Z " fill="#383D40" transform="translate(66,25)"/>
<path d="M0 0 C0.598125 0.309375 1.19625 0.61875 1.8125 0.9375 C4.08956772 2.10209704 4.08956772 2.10209704 7 3 C7 3.66 7 4.32 7 5 C6.01 5 5.02 5 4 5 C4 5.66 4 6.32 4 7 C4.99 7.33 5.98 7.66 7 8 C6.01 8.66 5.02 9.32 4 10 C3.49095616 12.4157113 3.49095616 12.4157113 3.48828125 15.2265625 C3.45283203 16.2578125 3.41738281 17.2890625 3.38085938 18.3515625 C3.34702148 19.97191406 3.34702148 19.97191406 3.3125 21.625 C3.27833984 22.71296875 3.24417969 23.8009375 3.20898438 24.921875 C3.12631666 27.61448063 3.05722913 30.30675291 3 33 C2.34 32.67 1.68 32.34 1 32 C-1.03144641 32.93446535 -3.03533587 33.93224776 -5 35 C-4.67 34.01 -4.34 33.02 -4 32 C-3.34 32 -2.68 32 -2 32 C-2.01160156 30.80761719 -2.02320312 29.61523438 -2.03515625 28.38671875 C-2.04453592 26.82031406 -2.05363593 25.25390769 -2.0625 23.6875 C-2.07506836 22.50897461 -2.07506836 22.50897461 -2.08789062 21.30664062 C-2.09111328 20.54931641 -2.09433594 19.79199219 -2.09765625 19.01171875 C-2.10289307 18.31522217 -2.10812988 17.61872559 -2.11352539 16.90112305 C-2 15 -2 15 -1 12 C-1.33 11.34 -1.66 10.68 -2 10 C-1.01 10 -0.02 10 1 10 C1 9.34 1 8.68 1 8 C1.66 8 2.32 8 3 8 C2.505 7.05125 2.01 6.1025 1.5 5.125 C0 2 0 2 0 0 Z " fill="#2E3438" transform="translate(72,30)"/>
<path d="M0 0 C-0.66 1.32 -1.32 2.64 -2 4 C-2.66 4 -3.32 4 -4 4 C-3.96447021 4.86802246 -3.92894043 5.73604492 -3.89233398 6.63037109 C-3.76321766 9.84685482 -3.63888856 13.06347744 -3.51782227 16.28027344 C-3.46440851 17.67325222 -3.40907957 19.06615893 -3.35180664 20.45898438 C-3.26987931 22.45943602 -3.19537902 24.4601875 -3.12109375 26.4609375 C-3.0739624 27.66540527 -3.02683105 28.86987305 -2.97827148 30.11083984 C-3 33 -3 33 -4 35 C-4.66 35 -5.32 35 -6 35 C-8.20346276 30.59307449 -7.26831385 24.66679273 -7.29516602 19.76928711 C-7.31240907 17.57407605 -7.35630224 15.38036004 -7.40039062 13.18554688 C-7.41051529 11.79167774 -7.41903211 10.39779581 -7.42578125 9.00390625 C-7.44036377 7.73361572 -7.45494629 6.4633252 -7.4699707 5.15454102 C-7 2 -7 2 -5.16088867 -0.00024414 C-3 -1 -3 -1 0 0 Z " fill="#C0C2C4" transform="translate(26,31)"/>
<path d="M0 0 C0.66 0 1.32 0 2 0 C2 0.99 2 1.98 2 3 C3.32 2.67 4.64 2.34 6 2 C6.12375 2.969375 6.2475 3.93875 6.375 4.9375 C6.58125 5.948125 6.7875 6.95875 7 8 C7.66 8.33 8.32 8.66 9 9 C9 8.34 9 7.68 9 7 C10.32 6.67 11.64 6.34 13 6 C12.731875 6.556875 12.46375 7.11375 12.1875 7.6875 C12.0946875 8.8321875 12.0946875 8.8321875 12 10 C14.35426499 12.77122275 14.35426499 12.77122275 17 15 C14.0714874 14.58164106 12.2047814 14.1422093 9.75 12.4375 C5.84762829 10.39762388 2.31847186 10.74597224 -2 11 C-2 10.01 -2 9.02 -2 8 C-2.66 8 -3.32 8 -4 8 C-2.87548273 5.0280615 -1.77706209 2.66559313 0 0 Z " fill="#212528" transform="translate(28,59)"/>
<path d="M0 0 C2.51651937 0.90075617 4.48564183 2.23608355 6.68164062 3.75390625 C7.48085938 4.30175781 8.28007813 4.84960938 9.10351562 5.4140625 C9.70679688 5.83558594 10.31007812 6.25710937 10.93164062 6.69140625 C9.94164062 7.02140625 8.95164063 7.35140625 7.93164062 7.69140625 C6.06445313 6.625 6.06445313 6.625 4.05664062 5.12890625 C0.93874002 2.92609198 0.93874002 2.92609198 -2.75585938 3.19140625 C-3.51898438 3.68640625 -4.28210938 4.18140625 -5.06835938 4.69140625 C-5.99648438 5.22765625 -6.92460938 5.76390625 -7.88085938 6.31640625 C-8.60273437 6.77015625 -9.32460938 7.22390625 -10.06835938 7.69140625 C-9.73835938 8.35140625 -9.40835938 9.01140625 -9.06835938 9.69140625 C-10.05835938 10.02140625 -11.04835938 10.35140625 -12.06835938 10.69140625 C-12.06835938 10.03140625 -12.06835938 9.37140625 -12.06835938 8.69140625 C-12.83148438 9.18640625 -13.59460938 9.68140625 -14.38085938 10.19140625 C-17.06835938 11.69140625 -17.06835938 11.69140625 -20.06835938 11.69140625 C-20.39835937 12.68140625 -20.72835938 13.67140625 -21.06835938 14.69140625 C-23.13085937 15.37890625 -23.13085937 15.37890625 -25.06835938 15.69140625 C-25.06835938 14.70140625 -25.06835938 13.71140625 -25.06835938 12.69140625 C-23.40169271 11.69140625 -21.73502604 10.69140625 -20.06835938 9.69140625 C-20.06835938 8.70140625 -20.06835938 7.71140625 -20.06835938 6.69140625 C-19.07835937 6.36140625 -18.08835937 6.03140625 -17.06835938 5.69140625 C-16.73835938 6.35140625 -16.40835938 7.01140625 -16.06835938 7.69140625 C-14.62203125 6.80775391 -14.62203125 6.80775391 -13.14648438 5.90625 C-11.87082978 5.14648513 -10.59476652 4.38740613 -9.31835938 3.62890625 C-8.68414062 3.23896484 -8.04992187 2.84902344 -7.39648438 2.44726562 C-2.58339814 -0.38543617 -2.58339814 -0.38543617 0 0 Z " fill="#49515A" transform="translate(50.068359375,23.30859375)"/>
<path d="M0 0 C0.99 0.99 1.98 1.98 3 3 C0.58889225 4.82032638 -1.82833135 6.63132015 -4.25 8.4375 C-4.93191406 8.95376953 -5.61382812 9.47003906 -6.31640625 10.00195312 C-6.98027344 10.49501953 -7.64414062 10.98808594 -8.328125 11.49609375 C-8.9355957 11.95169678 -9.54306641 12.4072998 -10.16894531 12.87670898 C-12.10878204 14.06673416 -13.77696914 14.56869768 -16 15 C-16.66 14.01 -17.32 13.02 -18 12 C-16.29592618 10.72346071 -14.58652649 9.4540296 -12.875 8.1875 C-11.92367187 7.47980469 -10.97234375 6.77210937 -9.9921875 6.04296875 C-7.08778914 4.05993958 -4.16215565 2.52608382 -1 1 C-0.67 0.67 -0.34 0.34 0 0 Z " fill="#363838" transform="translate(52,46)"/>
<path d="M0 0 C-0.33 0.99 -0.66 1.98 -1 3 C-2.97561688 3.73578693 -4.98189938 4.39031621 -7 5 C-9.14215073 6.0059248 -11.2677163 7.04794389 -13.375 8.125 C-14.43460938 8.66382813 -15.49421875 9.20265625 -16.5859375 9.7578125 C-17.38257813 10.16773438 -18.17921875 10.57765625 -19 11 C-19.1796875 6.2734375 -19.1796875 6.2734375 -17.5625 3.8125 C-12.43468956 0.18551213 -6.16487136 -0.31614725 0 0 Z " fill="#2B2C31" transform="translate(51,14)"/>
<path d="M0 0 C0.33 0 0.66 0 1 0 C1 7.59 1 15.18 1 23 C0.01 23 -0.98 23 -2 23 C-2.05789006 19.54173658 -2.09355821 16.08359707 -2.125 12.625 C-2.14175781 11.64015625 -2.15851563 10.6553125 -2.17578125 9.640625 C-2.18222656 8.69960938 -2.18867187 7.75859375 -2.1953125 6.7890625 C-2.20578613 5.91975098 -2.21625977 5.05043945 -2.22705078 4.15478516 C-2 2 -2 2 0 0 Z " fill="#9FA2A4" transform="translate(78,39)"/>
<path d="M0 0 C0.66 0.33 1.32 0.66 2 1 C2 1.99 2 2.98 2 4 C0.07388399 5.70523115 -1.79524684 7.19550317 -3.875 8.6875 C-4.43058594 9.10322266 -4.98617187 9.51894531 -5.55859375 9.94726562 C-9.71913485 13 -9.71913485 13 -12 13 C-12 11.68 -12 10.36 -12 9 C-9.375 7.0625 -9.375 7.0625 -6 5 C-3.94842896 3.38739123 -1.98198342 1.69884293 0 0 Z " fill="#8B8F91" transform="translate(43,47)"/>
<path d="M0 0 C-0.33 0.99 -0.66 1.98 -1 3 C-2.155 3.433125 -3.31 3.86625 -4.5 4.3125 C-6.52053394 5.20190772 -6.52053394 5.20190772 -8 7 C-8.68192388 10.7093184 -8.81262332 14.21144907 -8.83203125 17.98046875 C-8.91517578 19.47513672 -8.91517578 19.47513672 -9 21 C-9.66 21.33 -10.32 21.66 -11 22 C-11.0809313 19.39521117 -11.14045434 16.79293347 -11.1875 14.1875 C-11.22520508 13.08051758 -11.22520508 13.08051758 -11.26367188 11.95117188 C-11.3378358 6.48776293 -11.3378358 6.48776293 -9.6796875 4.09375 C-3.39285714 0 -3.39285714 0 0 0 Z " fill="#252C32" transform="translate(38,32)"/>
<path d="M0 0 C0.66 0 1.32 0 2 0 C2 0.99 2 1.98 2 3 C2.99 3 3.98 3 5 3 C4.61402985 5.79828356 4.19863427 6.8205884 2.0625 8.75 C0 10 0 10 -2 10 C-2 9.34 -2 8.68 -2 8 C-2.66 8 -3.32 8 -4 8 C-2.87548273 5.0280615 -1.77706209 2.66559313 0 0 Z " fill="#F1DCC1" transform="translate(28,59)"/>
<path d="M0 0 C0.33 0 0.66 0 1 0 C1 8.91 1 17.82 1 27 C1.99 27.33 2.98 27.66 4 28 C3.34 29.32 2.68 30.64 2 32 C2.66 32.33 3.32 32.66 4 33 C2.68 33.66 1.36 34.32 0 35 C0 23.45 0 11.9 0 0 Z " fill="#686B6A" transform="translate(22,35)"/>
<path d="M0 0 C0.33 0 0.66 0 1 0 C2.37125037 17.0983071 2.37125037 17.0983071 -0.8984375 21.6328125 C-3.28608534 23.23230474 -5.2064601 24.32453267 -8 25 C-8.99 24.67 -9.98 24.34 -11 24 C-9.54550599 22.9944239 -8.08627557 21.99569565 -6.625 21 C-5.81289062 20.443125 -5.00078125 19.88625 -4.1640625 19.3125 C-2 18 -2 18 0 18 C0 12.06 0 6.12 0 0 Z " fill="#1D2327" transform="translate(73,44)"/>
<path d="M0 0 C0.928125 0.45375 1.85625 0.9075 2.8125 1.375 C3.1425 2.695 3.4725 4.015 3.8125 5.375 C0.1825 5.045 -3.4475 4.715 -7.1875 4.375 C-7.1875 3.385 -7.1875 2.395 -7.1875 1.375 C-4.40925786 -0.54839841 -3.39528057 -0.66574129 0 0 Z " fill="#C2C6C8" transform="translate(51.1875,16.625)"/>
<path d="M0 0 C1.4540625 0.0309375 1.4540625 0.0309375 2.9375 0.0625 C2.9375 1.0525 2.9375 2.0425 2.9375 3.0625 C1.9475 3.0625 0.9575 3.0625 -0.0625 3.0625 C0.5975 3.7225 1.2575 4.3825 1.9375 5.0625 C-3.4810766 5.28827402 -7.83737721 4.52920113 -13.0625 3.0625 C-10.83566603 2.49273438 -8.63656672 1.9832566 -6.375 1.5625 C-3.23748147 0.88411761 -3.47554675 0.07092953 0 0 Z " fill="#1A1C1E" transform="translate(49.0625,81.9375)"/>
<path d="M0 0 C-0.33 0.99 -0.66 1.98 -1 3 C-2.97583715 3.73519522 -4.98177598 4.39072482 -7 5 C-9.01470098 5.97004121 -11.01922047 6.96244882 -13 8 C-13.33 7.01 -13.66 6.02 -14 5 C-13.360625 4.71125 -12.72125 4.4225 -12.0625 4.125 C-9.84793921 3.17176549 -9.84793921 3.17176549 -9 1 C-5.8035914 -0.06546953 -3.34252724 -0.07427838 0 0 Z " fill="#313236" transform="translate(51,14)"/>
<path d="M0 0 C3 2 3 2 3.546875 4.3125 C3.64742187 5.6428125 3.64742187 5.6428125 3.75 7 C3.82734375 7.886875 3.9046875 8.77375 3.984375 9.6875 C4 12 4 12 3 14 C2.34 14 1.68 14 1 14 C-0.38226016 11.23547967 -0.09525387 8.9538637 -0.0625 5.875 C-0.05347656 4.77929688 -0.04445313 3.68359375 -0.03515625 2.5546875 C-0.02355469 1.71164063 -0.01195313 0.86859375 0 0 Z " fill="#A0A6A9" transform="translate(19,52)"/>
<path d="M0 0 C0.33 0 0.66 0 1 0 C1 2.97 1 5.94 1 9 C1.99 8.67 2.98 8.34 4 8 C4 9.98 4 11.96 4 14 C2.02 14.99 2.02 14.99 0 16 C0 10.72 0 5.44 0 0 Z " fill="#ACAFB2" transform="translate(29,39)"/>
<path d="M0 0 C2.125 0.9375 2.125 0.9375 4 2 C3.67 2.66 3.34 3.32 3 4 C4.98 4.66 6.96 5.32 9 6 C9 6.66 9 7.32 9 8 C6.625 8.625 6.625 8.625 4 9 C3.34 8.34 2.68 7.68 2 7 C2 6.34 2 5.68 2 5 C0.70766393 3.62689293 -0.62437146 2.28965176 -2 1 C-1.34 0.67 -0.68 0.34 0 0 Z " fill="#283033" transform="translate(41,67)"/>
<path d="M0 0 C3.63 1.98 7.26 3.96 11 6 C10.01 7.485 10.01 7.485 9 9 C7.491987 8.07544441 5.99375083 7.1349253 4.5 6.1875 C3.6646875 5.66542969 2.829375 5.14335937 1.96875 4.60546875 C0.99421875 3.81076172 0.99421875 3.81076172 0 3 C0 2.01 0 1.02 0 0 Z " fill="#2C3138" transform="translate(51,21)"/>
<path d="M0 0 C1.32 0.99 2.64 1.98 4 3 C-1.17578125 6.22265625 -1.17578125 6.22265625 -3 7 C-3.99 6.67 -4.98 6.34 -6 6 C-4.95125002 3.37812506 -4.35068687 2.20628639 -1.875 0.75 C-1.25625 0.5025 -0.6375 0.255 0 0 Z " fill="#2E3033" transform="translate(26,24)"/>
<path d="M0 0 C0.99 0.33 1.98 0.66 3 1 C2.00233891 3.49415272 1.31383315 4.78740335 -0.9375 6.3125 C-3 7 -3 7 -6 6 C-2.25 1.125 -2.25 1.125 0 0 Z " fill="#828689" transform="translate(58,72)"/>
<path d="M0 0 C0.99 0 1.98 0 3 0 C3 1.32 3 2.64 3 4 C4.32 4 5.64 4 7 4 C8.25664978 6.90600261 9 8.79604584 9 12 C8.01 11.67 7.02 11.34 6 11 C6 9.02 6 7.04 6 5 C4.68 5.33 3.36 5.66 2 6 C2 4.68 2 3.36 2 2 C1.34 2 0.68 2 0 2 C0 1.34 0 0.68 0 0 Z " fill="#231F18" transform="translate(28,56)"/>
<path d="M0 0 C0.66 1.32 1.32 2.64 2 4 C-0.8125 6.0625 -0.8125 6.0625 -4 8 C-4.99 7.67 -5.98 7.34 -7 7 C-4.78071806 4.09197539 -3.07030857 2.04687238 0 0 Z " fill="#9C9F9F" transform="translate(51,41)"/>
<path d="M0 0 C0.66 0.33 1.32 0.66 2 1 C1.01 2.485 1.01 2.485 0 4 C0.33 4.99 0.66 5.98 1 7 C-1.3125 8.125 -1.3125 8.125 -4 9 C-4.99 8.34 -5.98 7.68 -7 7 C-6.01 6.34 -5.02 5.68 -4 5 C-4.33 4.34 -4.66 3.68 -5 3 C-2.625 1.4375 -2.625 1.4375 0 0 Z " fill="#25282B" transform="translate(55,78)"/>
<path d="M0 0 C0.99 0 1.98 0 3 0 C5.25 2.8125 5.25 2.8125 7 6 C6.67 6.99 6.34 7.98 6 9 C4.5 7.625 4.5 7.625 3 6 C3 5.34 3 4.68 3 4 C1.68 3.67 0.36 3.34 -1 3 C-0.67 2.01 -0.34 1.02 0 0 Z " fill="#ADBBC1" transform="translate(71,25)"/>
<path d="M0 0 C0.66 0 1.32 0 2 0 C2.33 2.31 2.66 4.62 3 7 C-1.43076923 9.09230769 -1.43076923 9.09230769 -4.3125 8.625 C-4.869375 8.41875 -5.42625 8.2125 -6 8 C-4.515 7.13375 -4.515 7.13375 -3 6.25 C-2.01 5.5075 -1.02 4.765 0 4 C0 2.68 0 1.36 0 0 Z " fill="#A06E4E" transform="translate(32,61)"/>
<path d="M0 0 C0.5534764 2.07553648 1 3.84365964 1 6 C0.01 6 -0.98 6 -2 6 C-2.33 6.99 -2.66 7.98 -3 9 C-5.0625 9.6875 -5.0625 9.6875 -7 10 C-7 9.01 -7 8.02 -7 7 C-5.33333333 6 -3.66666667 5 -2 4 C-2 3.01 -2 2.02 -2 1 C-1.34 0.67 -0.68 0.34 0 0 Z " fill="#42494E" transform="translate(32,29)"/>
<path d="M0 0 C3.31234384 1.16379648 5.8898219 2.11238786 8 5 C8 6.32 8 7.64 8 9 C7.34 9 6.68 9 6 9 C4.9935725 7.33720673 3.99414593 5.67016516 3 4 C2.01 3.34 1.02 2.68 0 2 C0 1.34 0 0.68 0 0 Z " fill="#BFC2C6" transform="translate(64,31)"/>
<path d="M0 0 C0 0.99 0 1.98 0 3 C-1.98 3.66 -3.96 4.32 -6 5 C-6.33 4.34 -6.66 3.68 -7 3 C-4.49955934 -0.00052879 -4.2621484 0 0 0 Z " fill="#C7CBCE" transform="translate(38,36)"/>
<path d="M0 0 C1.32 0 2.64 0 4 0 C2.9024777 2.99324263 2.32317108 3.84610901 -0.625 5.25 C-1.40875 5.4975 -2.1925 5.745 -3 6 C-1.125 1.125 -1.125 1.125 0 0 Z " fill="#ABAFB2" transform="translate(60,34)"/>
<path d="M0 0 C0.33 0.66 0.66 1.32 1 2 C2.99571323 2.67939174 4.99594773 3.34561559 7 4 C7.66 4.66 8.32 5.32 9 6 C7.68 6.33 6.36 6.66 5 7 C5 6.34 5 5.68 5 5 C4.01 5.33 3.02 5.66 2 6 C1.67 5.01 1.34 4.02 1 3 C0.34 2.67 -0.32 2.34 -1 2 C-0.67 1.34 -0.34 0.68 0 0 Z " fill="#252D31" transform="translate(31,71)"/>
<path d="M0 0 C0 2.64 0 5.28 0 8 C-0.99 8.495 -0.99 8.495 -2 9 C-3.35439668 6.29120665 -3.06501451 3.99066732 -3 1 C-1 0 -1 0 0 0 Z " fill="#9FA2A4" transform="translate(68,48)"/>
<path d="M0 0 C0.99 0.33 1.98 0.66 3 1 C2.34 2.32 1.68 3.64 1 5 C-0.32 5 -1.64 5 -3 5 C-2.625 3.0625 -2.625 3.0625 -2 1 C-1.34 0.67 -0.68 0.34 0 0 Z " fill="#C8CACC" transform="translate(23,30)"/>
<path d="M0 0 C3.88019859 1.25844278 5.9411842 2.42416203 8 6 C8 6.99 8 7.98 8 9 C7.34 9 6.68 9 6 9 C4.95355934 7.36209288 3.9601817 5.68991979 3 4 C2.01755155 2.65368175 1.02323436 1.31558703 0 0 Z " fill="#C4C9CE" transform="translate(67,29)"/>
<path d="M0 0 C-1.32 0.99 -2.64 1.98 -4 3 C-5.32 2.34 -6.64 1.68 -8 1 C-8 0.34 -8 -0.32 -8 -1 C-4.37673261 -2.2077558 -3.35853631 -1.54311128 0 0 Z " fill="#777C7D" transform="translate(40,72)"/>
<path d="M0 0 C0 0.99 0 1.98 0 3 C-4.75 2.25 -4.75 2.25 -7 0 C-4.3333581 -1.33332095 -2.83319697 -0.67102033 0 0 Z " fill="#B7BCBF" transform="translate(57,32)"/>
<path d="M0 0 C-1 3 -1 3 -3.4375 4.75 C-4.7059375 5.36875 -4.7059375 5.36875 -6 6 C-6.66 5.67 -7.32 5.34 -8 5 C-3.16129032 0 -3.16129032 0 0 0 Z " fill="#22292C" transform="translate(40,26)"/>
<path d="M0 0 C0 0.66 0 1.32 0 2 C-1.32 2 -2.64 2 -4 2 C-4 2.66 -4 3.32 -4 4 C-4.99 4 -5.98 4 -7 4 C-7 3.01 -7 2.02 -7 1 C-3.375 -1.125 -3.375 -1.125 0 0 Z " fill="#CBCCCF" transform="translate(51,17)"/>
<path d="M0 0 C0.66 0.33 1.32 0.66 2 1 C1.67 2.32 1.34 3.64 1 5 C-0.875 5.625 -0.875 5.625 -3 6 C-3.66 5.34 -4.32 4.68 -5 4 C-4.01 3.67 -3.02 3.34 -2 3 C-2.33 2.34 -2.66 1.68 -3 1 C-2.01 0.67 -1.02 0.34 0 0 Z " fill="#7C858A" transform="translate(51,65)"/>
<path d="M0 0 C0.33 1.32 0.66 2.64 1 4 C-0.98 4.99 -0.98 4.99 -3 6 C-3.66 4.68 -4.32 3.36 -5 2 C-3.35 1.34 -1.7 0.68 0 0 Z " fill="#71787B" transform="translate(53,75)"/>
<path d="M0 0 C-4.75 4 -4.75 4 -7 4 C-7 2.68 -7 1.36 -7 0 C-2.25 -1.125 -2.25 -1.125 0 0 Z " fill="#F7BE93" transform="translate(33,65)"/>
<path d="M0 0 C0 0.99 0 1.98 0 3 C-1.65 3.66 -3.3 4.32 -5 5 C-5 3.68 -5 2.36 -5 1 C-3 0 -3 0 0 0 Z " fill="#838386" transform="translate(36,55)"/>
<path d="M0 0 C0.66 0.33 1.32 0.66 2 1 C2 1.99 2 2.98 2 4 C0.02 4.33 -1.96 4.66 -4 5 C-2.68 3.35 -1.36 1.7 0 0 Z " fill="#929598" transform="translate(43,47)"/>
</svg>
